# xmcd
#
# Track frame offsets:
#	150
#	12725
#	25233
#	36985
#	49612
#	62571
#	75550
#	88045
#	100343
#	112135
#	124095
#	136555
#	148887
#	162202
#	175663
#	188924
#	201736
#	214444
#	226082
#	238079
#	249076
#	261607
#	273111
#	284078
#	295867
#
# Disc length: 4108 seconds
#
# Revision: 0
# Processed by: cddbd v1.4PL0 Copyright (c) Steve Scherf et al.
# Submitted via: dBpowerAMP V4.0
#
DISCID=7b100a19
DTITLE=Hank Williams and his Drifting Cowboys - Lovesick Blues
DYEAR=1900
DGENRE=Country
TTITLE0=Move It On Over
TTITLE1=I Saw The Light
TTITLE2=I'm Satisfied With You
TTITLE3=Rootie Tootie
TTITLE4=I Can't Get You Off My Mind
TTITLE5=I'm A Long Gone Daddy
TTITLE6=Honky Tonkin'
TTITLE7=The Blues Come Around
TTITLE8=A Mansion On The Hill
TTITLE9=I'll Be A Bachelor 'Till I Die
TTITLE10=Lovesick Blues
TTITLE11=Lost Highway
TTITLE12=Mind Your Own Business
TTITLE13=Your Gonna Change, Or I'm Gonna Leave
TTITLE14=Wedding Bells
TTITLE15=I Just Don't Like This Kind Of Livin'
TTITLE16=I'm So Lonesome I Could Cry
TTITLE17=My Buckets Got A Hole In It
TTITLE18=Long Gone, Lonesome Blues
TTITLE19=Why Don't You Love Me?
TTITLE20=They'll Never Take Her Love From Me
TTITLE21=Nobody's Lonesome For Me
TTITLE22=Moanin' The Blues
TTITLE23=Dear John
TTITLE24=Cold, Cold Heart
EXTD=
EXTT0=
EXTT1=
EXTT2=
EXTT3=
EXTT4=
EXTT5=
EXTT6=
EXTT7=
EXTT8=
EXTT9=
EXTT10=
EXTT11=
EXTT12=
EXTT13=
EXTT14=
EXTT15=
EXTT16=
EXTT17=
EXTT18=
EXTT19=
EXTT20=
EXTT21=
EXTT22=
EXTT23=
EXTT24=
PLAYORDER=
